<svg xmlns="http://www.w3.org/2000/svg" version="1.1" viewBox="-5.0 -10.0 110.0 135.0">
 <path d="m25.27 68.012c-0.5625-0.60156-0.52734-1.5508 0.074219-2.1133s1.5508-0.52734 2.1133 0.074218l1.8086 1.9023 1.8789 1.8945c0.58594 0.58203 0.58984 1.5312 0.007813 2.1133-0.58203 0.58594-1.5312 0.58984-2.1133 0.007813l-1.9102-1.9336-1.8555-1.9492zm68.34-27.785c0.58594 0.58594 0.58594 1.5352 0 2.1211-0.58594 0.58594-1.5352 0.58594-2.1211 0l-8.4766-8.4766c-0.58594-0.58594-0.58594-1.5352 0-2.1211 0.58594-0.58594 1.5352-0.58594 2.1211 0zm-12.262-12.262c0.58594 0.58594 0.58594 1.5352 0 2.1211-0.58594 0.58594-1.5352 0.58594-2.1211 0l-21.574-21.574c-0.58594-0.58594-0.58594-1.5352 0-2.1211 0.58594-0.58594 1.5352-0.58594 2.1211 0zm0.68359 16.098c0.58594 0.58594 0.58594 1.5352 0 2.1211-0.58594 0.58594-1.5352 0.58594-2.1211 0l-26.094-26.094c-0.58594-0.58594-0.58594-1.5352 0-2.1211 0.58594-0.58594 1.5352-0.58594 2.1211 0zm-11.578 3.8398c0.58594 0.58594 0.58594 1.5352 0 2.1211-0.58594 0.58594-1.5352 0.58594-2.1211 0l-18.355-18.355c-0.58594-0.58594-0.58594-1.5352 0-2.1211 0.58594-0.58594 1.5352-0.58594 2.1211 0zm15.934 38.609-17.434-17.434c-1.2773 0.45703-2.6211 0.68359-3.9648 0.68359-3.0039 0-6.0117-1.1445-8.2969-3.4258l-8.2422-8.2383c-0.58594-0.58594-0.58594-1.5352 0-2.1211 0.58594-0.58594 1.5352-0.58594 2.1211 0l8.2383 8.2383c1.6953 1.6992 3.9375 2.5469 6.1797 2.5469 1.25 0 2.5-0.26562 3.6562-0.79297l0.03125-0.015625 0.003907-0.003906 0.03125-0.015625h0.003906c0.89062-0.41797 1.7266-0.99219 2.457-1.7227l2.2812-2.2812c1.6602-1.6602 3.8398-2.4883 6.0195-2.4883 2.1797 0 4.3633 0.82812 6.0195 2.4883l8.832 8.832c1.6602 1.6602 2.4883 3.8438 2.4883 6.0195 0 2.1797-0.82812 4.3633-2.4883 6.0195l-4.7109 4.707-4.8164 4.8164c-5.2344 5.2344-13.004 5.5703-21.73 2.6328-9.5625-3.2148-20.367-10.43-30.121-19.348-0.60547-0.55469-0.65234-1.5-0.09375-2.1094 0.55469-0.60547 1.5-0.65234 2.1094-0.09375 9.4648 8.6523 19.895 15.633 29.055 18.715 7.6484 2.5742 14.344 2.3945 18.66-1.9219l3.7031-3.6992zm-14.633-18.879 16.754 16.754 3.6992-3.6992c1.0742-1.0742 1.6094-2.4883 1.6094-3.8984 0-1.4141-0.53516-2.8242-1.6094-3.8984l-8.8359-8.8359c-1.0703-1.0703-2.4883-1.6094-3.8984-1.6094-1.4141 0-2.8281 0.53516-3.8984 1.6094l-2.2812 2.2812c-0.48438 0.48437-1 0.91406-1.5391 1.2969zm-40.832-36.59-8.9297-8.9297c-0.58594-0.58594-0.58594-1.5352 0-2.1211 0.58594-0.58594 1.5352-0.58594 2.1211 0l8.2539 8.2539c0.38281-0.54297 0.8125-1.0586 1.2969-1.543l2.2812-2.2812c1.0703-1.0703 1.6094-2.4883 1.6094-3.8984 0-1.4141-0.53516-2.8281-1.6094-3.8984l-8.832-8.832c-1.0742-1.0742-2.4883-1.6094-3.8984-1.6094-1.4141 0-2.8242 0.53516-3.8984 1.6094l-3.7031 3.7031 4.7266 4.7266c0.58594 0.58594 0.58594 1.5352 0 2.1211-0.58594 0.58594-1.5352 0.58594-2.1211 0l-4.7266-4.7266-3.6992 3.7031c-4.0781 4.0781-4.4609 10.285-2.3164 17.414 2.5586 8.5039 8.668 18.227 16.461 27.309 0.53516 0.62891 0.46094 1.5703-0.16406 2.1094-0.62891 0.53516-1.5703 0.46094-2.1094-0.16406-8.0508-9.3789-14.375-19.48-17.062-28.398-2.4609-8.1797-1.9023-15.426 3.0625-20.391l9.5234-9.5234c1.6602-1.6602 3.8438-2.4883 6.0195-2.4883 2.1797 0 4.3633 0.82812 6.0195 2.4883l8.8359 8.8359c1.6602 1.6602 2.4883 3.8438 2.4883 6.0195 0 2.1797-0.82812 4.3633-2.4883 6.0195l-2.2812 2.2812c-1.6953 1.6953-2.5469 3.9375-2.5469 6.1797 0 2.2109 0.82422 4.4219 2.4727 6.1094l3.5156 3.5117c0.58594 0.58594 0.58594 1.5352 0 2.1211-0.58594 0.58594-1.5352 0.58594-2.1211 0l-3.5273-3.5352c-2.2266-2.2695-3.3438-5.2422-3.3438-8.2109 0-1.3438 0.22656-2.6836 0.68359-3.9648zm15.875 21.148c0.58594 0.58594 0.58594 1.5352 0 2.1211s-1.5352 0.58594-2.1211 0l-3.7812-3.7812c-0.58594-0.58594-0.58594-1.5352 0-2.1211 0.58594-0.58594 1.5352-0.58594 2.1211 0z"/>
</svg>