<svg xmlns="http://www.w3.org/2000/svg" version="1.1" viewBox="-5.0 -10.0 110.0 135.0">
 <path d="m84.391 43.73c-3-2.5391-7.25-3.8203-11.578-3.6602 1.9688-1.7305 3.8516-3.8906 5.6094-6.5781 2.8086-4.2891 3.4297-8.3008 1.8516-11.93-2.1016-4.8281-7.5391-7.5-10.98-8.2305-1.8594-3.0391-5.5898-6.2109-10.059-6.75-2.8281-0.33984-7.1406 0.26172-11.609 5.0586-3.0781 3.3086-4.8008 7.8008-4.9297 12.531-3.3984-4.3281-7.3398-6.6914-11.77-7.0117-5.0312-0.37891-9.2188 0.89844-12.148 3.6797-2.3906 2.2695-3.7188 5.4219-3.7695 8.9102-3.0781 2.1406-4.8281 7.0586-4.1797 12.012 0.73828 5.6484 4.2891 9.7109 9.7617 11.148 1.9805 0.51953 3.8984 0.82031 5.75 0.94141-3.0312 2.3398-5.1289 5.7891-5.8281 9.7617-1.0312 5.8789 0.89062 9.5586 2.6914 11.609 2.4609 2.8008 6.3516 4.4102 10.449 4.3594 2.3984 2.4688 6.3906 4.6719 10.602 4.6719 0.48047 0 0.94922-0.03125 1.4297-0.089844 2.7695-0.33984 6.6914-1.8906 9.6094-7.3516 0.55859-1.0508 1.0195-2.2188 1.3906-3.4414 1.4609 5.4805 1.3398 11.141 1.2188 15.871-0.03125 1.0508-0.050782 2.0508-0.058594 2.9883 0 0 0.011719 0.5 0.10938 0.62891 0.10156 0.14062 0.53125 0.30859 0.53125 0.30859 0.67188 0.26172 1.4297 0.33984 2.1406 0.33984 1.3594 0 2.5586-0.30859 2.7617-0.37109 0 0 0.46875-0.14062 0.58984-0.26172 0.12109-0.12109 0.14063-0.57812 0.14063-0.57812 1.0508-8.2812-0.62109-16.59-1.8398-21.199 0.62109 0.5 1.2812 0.98047 2.0117 1.4219 2.5508 1.5703 4.9609 2.3594 7.1914 2.3594 1.0312 0 2.0312-0.17188 2.9883-0.51172 5.3594-1.8906 7.8594-8.5117 8.8711-11.328 1.9414-1.5703 5.8984-5.3594 5.9805-10.191 0.050782-3.2266-1.6016-6.2969-4.9297-9.1172zm-35.312-30.719c3.1289-3.3594 6.4609-4.8594 9.9102-4.4414 3.9688 0.48047 7.2812 3.4297 8.7891 6.1484 0 0 0.21094 0.33984 0.26953 0.39062s0.44141 0.10938 0.44141 0.10938c2.8516 0.48828 8.0703 2.8594 9.9414 7.1484 1.2891 2.9688 0.73047 6.3398-1.6914 10.031-6.8789 10.512-15.719 12.289-25 12.93 0.87891-3.4102 3.4883-13.102 9.8086-21.57 0.32812-0.44141 0.25-1.0508-0.17969-1.3906-0.44141-0.33984-1.0898-0.26172-1.4219 0.19141-5.4102 7.2617-8.0508 15.211-9.4492 19.789-0.85156-3.3008-2.6797-9.7617-4.8984-13.762-0.23828-0.44141-0.48828-0.87109-0.73828-1.2812-0.73828-5.3359 0.82031-10.633 4.2188-14.293zm-28 37.957c-4.6406-1.2188-7.6602-4.6719-8.2812-9.4688-0.57031-4.3711 1.0195-8.8086 3.6992-10.328 0 0 0.41016-0.30078 0.46094-0.37109 0.058594-0.078125 0.039063-0.53125 0.039063-0.53125-0.070313-3.1484 1.0508-5.9883 3.1484-7.9883 2.2109-2.1016 5.3281-3.1914 9.0898-3.1914 0.5 0 1.0117 0.019531 1.5312 0.058594 5.0391 0.37891 9.4414 3.8789 13.078 10.41 2.3203 4.1602 4.25 11.43 4.9414 14.191-3.2617-2.25-9.7188-6.5703-18.48-8.6992-0.53906-0.12891-1.0898 0.21875-1.2109 0.76172-0.12109 0.53125 0.21875 1.0508 0.75 1.1797 8.7891 2.1406 15.371 6.6797 18.281 8.7383-0.23047 0.12109-0.44141 0.21875-0.67188 0.35156-5.6328 2.9492-15.062 7.8672-26.375 4.8867zm32.441 24.883c-2.0195 3.7695-4.7383 5.8984-8.0898 6.3086-4.1797 0.51953-8.4414-1.8594-10.629-4.2812 0 0-0.23047-0.26172-0.32031-0.28906-0.089844-0.03125-0.46094-0.03125-0.46094-0.03125-3.6914 0.14844-7.1719-1.2109-9.3281-3.6719-2.1719-2.4688-2.9414-5.9102-2.2305-9.9414 0.80078-4.5391 3.6914-8.3008 7.7383-10.109 7.3086-0.46875 13.352-3.4609 17.559-5.6484-2.5898 3.4297-7.5 9.9297-10.609 18.262-0.19922 0.51953 0.078124 1.1094 0.60937 1.3008 0.51172 0.17969 1.0703-0.089844 1.2617-0.60156 3.5117-9.3984 9.4688-16.711 11.461-19.18 1.4219 1.8594 2.2109 4.5781 3.1016 7.6719 0.53906 1.8789 1.1406 3.9102 1.9492 5.9492 0 0 0.30078 2.3086 0.30859 3.6992 0.019531 3.4023-0.69922 7.5391-2.3203 10.562zm8.6914 15.5c-0.66016 0.12109-1.5703 0.21875-2.3594 0.10156 0.011719-0.69922 0.03125-1.4219 0.050782-2.1719 0.14062-5.8086 0.30859-12.988-2.3711-19.762 0.17188-1.1484 0.26172-2.3008 0.28906-3.3906 0.44922 0.69922 0.94141 1.3906 1.4883 2.0586 0.30078 0.86328 4.0898 12.133 2.9023 23.164zm19.648-29.691s-0.14844 0.14062-0.19922 0.19922c-0.050781 0.058594-0.12109 0.25-0.12109 0.25-0.85156 2.3906-3.1016 8.75-7.7383 10.379-2.4297 0.85938-5.2812 0.28906-8.4609-1.6719-6.4219-3.9609-8.2305-10.23-9.8281-15.762-0.75-2.6094-1.4883-5.1016-2.6484-7.1211 3.8281 0.96094 11.559 3.3008 19.68 8.9414 0.44922 0.30859 1.0586 0.21875 1.3789-0.23047 0.32812-0.44922 0.21875-1.0898-0.23828-1.4102-6.6016-4.5898-12.879-6.9883-17.191-8.3711 4.5781-0.60156 9-1.7695 13.109-4.3906 4.8984-1.1406 10.129-0.089844 13.5 2.7695 2.8398 2.4102 4.2617 4.9492 4.2109 7.5586-0.082031 4.1875-3.8438 7.5898-5.4531 8.8594z"/>
<text x="0.0" y="117.5" font-size="5.0" font-weight="bold" font-family="Arbeit Regular, Helvetica, Arial-Unicode, Arial, Sans-serif" fill="#000000">Created by jk Lim</text><text x="0.0" y="122.5" font-size="5.0" font-weight="bold" font-family="Arbeit Regular, Helvetica, Arial-Unicode, Arial, Sans-serif" fill="#000000">from Noun Project</text></svg>