<svg xmlns="http://www.w3.org/2000/svg" version="1.1" viewBox="-5.0 -10.0 110.0 135.0">
 <path d="m42.105 76.82c-0.13672-1.0156-0.66406-1.9023-1.4922-2.4922-2.7188-1.9453-6.7852-6.7891-5.418-17.832 0.85156 1.0781 1.9688 1.8047 3.3477 2.1211 0.90234 0.20703 1.75 0.30859 2.5391 0.30859 1.6484 0 3.043-0.44922 4.1719-1.3438 1.6641-1.3203 2.3086-3.2891 2.5586-4.625 1.2852 0.44141 3.3164 0.85547 5.2812 0.0625 1.9766-0.79688 3.3906-2.5898 4.2109-5.3242 0.62891-2.0938 0.39844-5.0039-3.4414-7.832 4.6367-0.58594 6.2461-2.9844 6.7305-5.1055 0.63672-2.7812 0.28906-5.0391-1.0312-6.7109-1.3203-1.6602-3.2891-2.3047-4.625-2.5547 0.44141-1.2852 0.85547-3.3203 0.058594-5.2852-0.79688-1.9766-2.5898-3.3906-5.3242-4.2109-2.0586-0.61719-4.9062-0.41016-7.6836 3.2578-0.61328-4.5273-2.9844-6.1055-5.0664-6.582-2.7812-0.63672-5.0391-0.28906-6.7109 1.0312-1.6641 1.3203-2.3086 3.2891-2.5586 4.625-1.2852-0.44141-3.3164-0.85547-5.2812-0.0625-1.9766 0.79688-3.3906 2.5898-4.2109 5.3242-0.61719 2.0586-0.41016 4.9141 3.2578 7.6953-4.6562 0.57422-6.2812 2.9727-6.7656 5.0938-0.63672 2.7812-0.28906 5.0391 1.0312 6.7109 1.3203 1.6641 3.2891 2.3086 4.625 2.5586-0.44141 1.2852-0.85547 3.3164-0.0625 5.2812 0.79688 1.9766 2.5898 3.3906 5.3242 4.2109 0.58984 0.17578 1.1719 0.26562 1.7539 0.26562 0.82422 0 1.6367-0.18359 2.4219-0.53516-2.1836 8.6094-3.2461 21.156 7.0586 25.848 0.50781 0.23047 1.0469 0.34375 1.5781 0.34375 1.1016 0 2.1797-0.48047 2.9062-1.3711 0.65625-0.79688 0.95313-1.8477 0.81641-2.8711zm13.289-29.695c-0.63281 2.1172-1.6562 3.4766-3.0352 4.0391-2.2539 0.92188-4.8711-0.50781-4.8945-0.51953l-1.4805-0.83203-0.007813 1.6992c0 0.03125-0.070312 3.0078-1.9609 4.5078-1.1719 0.92969-2.8594 1.1445-5.0195 0.65234-1.6953-0.39062-2.7773-1.6133-3.3125-3.7422-0.070313-0.28906-0.13281-0.58984-0.18359-0.90625-0.10156-0.63281-0.15625-1.3242-0.17188-2.0664-0.007813-0.37109-0.003906-0.75391 0.011719-1.1523 0.003906-0.13281 0.015625-0.26953 0.023437-0.40234l0.082031-0.17578c0.20313-0.42969 0.39063-0.87109 0.57422-1.3125 0.035157-0.089843 0.074219-0.17578 0.10938-0.26562 0.17188-0.42188 0.33203-0.84766 0.48438-1.2734 0.035157-0.09375 0.066407-0.18359 0.097657-0.27734 0.14453-0.41406 0.28516-0.82812 0.41016-1.2383 0.011718-0.03125 0.023437-0.066406 0.03125-0.097656 0.13281-0.42969 0.25391-0.85938 0.37109-1.2812 0.027343-0.097657 0.054687-0.19531 0.078124-0.29297 0.10938-0.40625 0.20703-0.80469 0.30078-1.1953 0.019531-0.085938 0.039062-0.17188 0.058594-0.25781 0.082031-0.36719 0.16016-0.72656 0.23047-1.0742 0.007813-0.042968 0.019532-0.089844 0.027344-0.13281 0.03125-0.16406 0.058594-0.32031 0.085938-0.48047l4.5742 8.5c0.26172 0.48438 0.86719 0.66797 1.3555 0.40625s0.66797-0.86719 0.40625-1.3555l-4.7773-8.8789c0.30469 0.11328 0.62109 0.22656 0.95312 0.33594 0.046875 0.015624 0.089844 0.03125 0.13672 0.046874 0.38281 0.12891 0.78906 0.25391 1.2031 0.375 0.082031 0.023438 0.16406 0.046876 0.25 0.074219 0.42188 0.12109 0.85156 0.23828 1.293 0.35156 0.058593 0.015625 0.12109 0.027344 0.17969 0.042968 0.41797 0.10547 0.84375 0.20313 1.2773 0.29688 0.070312 0.015624 0.13672 0.03125 0.20703 0.046874 0.45703 0.09375 0.92188 0.18359 1.3906 0.26172 0.10156 0.015625 0.20312 0.035157 0.30469 0.050781 0.47266 0.078126 0.94922 0.14453 1.4258 0.19922 0.0625 0.007813 0.12891 0.011719 0.19141 0.019531 0.44531 0.050782 0.88672 0.085938 1.332 0.11719 0.058594 0.003906 0.11719 0.011719 0.17969 0.015625l0.074219 0.035156c2.875 1.4844 6.0977 3.9141 5.1328 7.1367zm-6.2891-29.211c2.1172 0.63281 3.4766 1.6562 4.0391 3.0352 0.91406 2.25-0.49219 4.8555-0.51953 4.9023l-0.82812 1.4805 1.6992 0.007813c0.03125 0 3.0078 0.066406 4.5078 1.957 0.92969 1.1719 1.1484 2.8594 0.65234 5.0195-0.76172 3.3242-4.8516 3.8242-8.1562 3.6562-0.53906-0.027344-1.0781-0.074218-1.6211-0.13281-0.26562-0.03125-0.53125-0.074219-0.79297-0.10938-0.27734-0.039063-0.55469-0.070313-0.82813-0.11719-0.30469-0.050781-0.60547-0.11328-0.90625-0.17188-0.23047-0.042968-0.46094-0.082031-0.6875-0.12891-0.30469-0.066406-0.59766-0.14062-0.89453-0.21094-0.21484-0.050781-0.43359-0.097656-0.64453-0.15234-0.26953-0.070313-0.52344-0.14453-0.78516-0.21875-0.22266-0.0625-0.45312-0.12109-0.66797-0.18359-0.22656-0.066406-0.43359-0.13672-0.65234-0.20703-0.17969-0.058594-0.36328-0.11328-0.53906-0.17188l7.3398-4.2383c0.47656-0.27734 0.64063-0.88672 0.36719-1.3672-0.27734-0.47656-0.88672-0.64062-1.3672-0.36719l-8.6445 4.9883 0.29297-0.55078-0.078125-0.003906c0.22266-0.52734 0.44922-1.1172 0.67188-1.7578 0-0.003906 0.003906-0.007813 0.003906-0.015625 0.078125-0.22656 0.15625-0.45703 0.23438-0.69922 0.082031-0.24609 0.16016-0.5 0.24219-0.76172 0.007812-0.023437 0.011719-0.046875 0.019531-0.070312 0.082031-0.27344 0.16406-0.55469 0.24609-0.84375 0-0.003907 0.003906-0.007813 0.003906-0.011719 0.58984-2.1133 1.0781-4.5195 1.2656-6.8789 0.007813-0.078125 0.007813-0.15625 0.015625-0.23047 0.011719-0.19141 0.027344-0.38672 0.039062-0.57812 2.0977-3.9844 4.4492-5.625 6.9727-4.8672zm-29.023 6.2539c0.63281-2.1172 1.6562-3.4766 3.0352-4.0391 0.54687-0.22266 1.1172-0.30859 1.668-0.30859 1.707 0 3.2109 0.82031 3.2266 0.82813l1.4805 0.83203 0.007812-1.6992c0-0.03125 0.070312-3.0078 1.9609-4.5078 1.1719-0.92578 2.8594-1.1484 5.0195-0.65234 2.6055 0.59766 3.8359 3.2461 3.6562 7.8672-0.011719 0.28125-0.027344 0.57031-0.050781 0.85547-0.19531 2.5703-0.79688 5.3008-1.4883 7.5703-0.003906 0.015626-0.007812 0.03125-0.015625 0.046876-0.03125 0.10547-0.066406 0.20703-0.097656 0.30859-0.27344 0.86328-0.55859 1.6562-0.83594 2.332l-3.9961-7.4258c-0.26172-0.48438-0.86719-0.66797-1.3555-0.40625s-0.66797 0.86719-0.40625 1.3555l4.0039 7.4375c-1.7461-0.23047-4.0547-0.73828-6.375-1.5039-0.007812-0.003906-0.015625-0.003906-0.023437-0.007813-0.26953-0.089843-0.53906-0.18359-0.80859-0.27734-0.03125-0.011719-0.0625-0.023438-0.09375-0.03125-0.24609-0.089844-0.48828-0.17969-0.73438-0.27344-0.050781-0.019531-0.10156-0.039062-0.14844-0.058594-0.22266-0.085937-0.44531-0.17969-0.66797-0.27344-0.066407-0.027344-0.13281-0.054688-0.19531-0.082031-0.21094-0.089844-0.41797-0.18359-0.625-0.27734-0.070312-0.03125-0.14062-0.0625-0.20703-0.09375-0.26953-0.125-0.53906-0.25781-0.79688-0.39062-2.8789-1.4727-6.1055-3.9062-5.1367-7.125zm6.0703 29.062c-2.1172-0.63672-3.4766-1.6562-4.0391-3.0352-0.91797-2.2539 0.50781-4.8711 0.51953-4.8945l0.83203-1.4805-1.6992-0.007812c-0.03125 0-3.0078-0.070312-4.5078-1.9609-0.86719-1.0938-1.1133-2.6367-0.73828-4.5977 0.28125-1.4648 1.2266-2.707 2.6055-3.2891 1.7852-0.75 3.6602-0.85547 5.3789-0.78906 0.046875 0.023438 0.09375 0.042969 0.14062 0.066407 0.47266 0.23437 0.95312 0.45703 1.4453 0.66797 0.007812 0.003906 0.015625 0.007813 0.027344 0.011719 0.51562 0.21875 1.0352 0.42188 1.5586 0.61328 0.050781 0.019532 0.097657 0.039063 0.14844 0.054688 0.51562 0.1875 1.0352 0.36328 1.5508 0.52344 0.039062 0.011719 0.078125 0.023438 0.12109 0.039063 1.0703 0.33203 2.1211 0.61328 3.1133 0.83594 0.015625 0.003907 0.03125 0.007813 0.046875 0.011719 0.45312 0.10156 0.89062 0.19141 1.3164 0.26953 0.09375 0.015625 0.18359 0.035157 0.27344 0.050781 0.375 0.066407 0.73828 0.125 1.0859 0.17578 0.11719 0.015625 0.22656 0.03125 0.33984 0.046875 0.13281 0.019531 0.26953 0.035156 0.39844 0.050781l-0.058593 0.11328h0.53125l-8.8125 5.0859c-0.47656 0.27734-0.64062 0.88672-0.36719 1.3672 0.27734 0.47656 0.88672 0.64062 1.3672 0.36719l7.5234-4.3438c-0.019531 0.097656-0.039062 0.19531-0.0625 0.29688-0.046875 0.23047-0.089844 0.45312-0.14453 0.69531-0.042969 0.19531-0.097656 0.39844-0.14453 0.59766-0.0625 0.25781-0.12109 0.51562-0.19141 0.78125-0.054688 0.21094-0.12109 0.42578-0.17969 0.64062-0.074219 0.26563-0.14453 0.53125-0.22656 0.80078-0.070313 0.23438-0.15625 0.47266-0.23047 0.71094-0.082031 0.25391-0.16016 0.50391-0.25 0.75781-0.10938 0.30859-0.23047 0.61328-0.34766 0.91797-0.070312 0.18359-0.13281 0.36719-0.20703 0.54688-0.19531 0.48437-0.40625 0.96484-0.62891 1.4375l-0.17969 0.37891c-0.83203 1.6914-1.7383 3.0352-2.6992 4-1.4883 1.4844-2.9961 1.9727-4.6094 1.4844zm13.586 25.203c-0.5 0.61328-1.3672 0.80859-2.1016 0.47266-9.9688-4.5391-7.6367-18.09-5.2891-25.93 0.20703-0.21875 0.41016-0.45312 0.61328-0.69922 0.042968-0.050782 0.082031-0.10547 0.125-0.16016 0.11719-0.14453 0.23047-0.28906 0.34766-0.44141 0.007812 0.078125 0.027344 0.14844 0.039062 0.22656 0.046875 0.36328 0.10547 0.71484 0.17578 1.0508 0.015624 0.074219 0.023437 0.16406 0.039062 0.23828-2.75 14.242 2.4219 20.375 5.7656 22.762 0.37109 0.26562 0.60938 0.66797 0.67188 1.1289 0.0625 0.48047-0.078125 0.97266-0.38672 1.3516zm45.762-11.668c-0.38672-1.4609-1.4219-2.4844-2.2617-3.1016 0.67969-0.79687 1.4531-2.0273 1.4961-3.5391 0.046875-1.668-0.78125-3.2383-2.4688-4.6641-1.207-1.0234-3.1445-1.75-5.9609-0.37891 0.70703-3.0742-0.44531-4.8047-1.7227-5.75-1.7734-1.3125-3.4922-1.7656-5.1016-1.3359-1.4609 0.38672-2.4844 1.4219-3.1055 2.2617-0.79297-0.67578-2.0234-1.4531-3.5352-1.4922-1.6992-0.058594-3.2383 0.78125-4.6641 2.4648-1.0391 1.2266-1.7656 3.1914-0.34766 6.0547-3.1758-0.78125-4.9492 0.39062-5.9102 1.6914-1.3125 1.7734-1.7656 3.4922-1.3359 5.1016 0.38672 1.4609 1.4219 2.4844 2.2617 3.1016-0.67969 0.79687-1.4531 2.0273-1.4922 3.5391-0.046874 1.668 0.78125 3.2383 2.4688 4.6641 0.55469 0.46875 1.3359 0.90625 2.3359 1.0586-5.6836 5.25-10.121 5-12.387 4.2773-0.78906-0.25-1.625-0.16406-2.3516 0.24219-0.73438 0.41016-1.2734 1.1133-1.4766 1.9297-0.33594 1.3398 0.28906 2.7461 1.5117 3.418 1.7109 0.9375 3.3945 1.3359 5.0312 1.3359 5.4219 0 10.281-4.4062 13.543-8.3477 0.36328 1.082 1.0273 1.8125 1.6602 2.2812 1.3438 0.99219 2.6484 1.4922 3.9062 1.4922 0.40625 0 0.80469-0.050781 1.1953-0.15625 1.4609-0.38672 2.4844-1.4219 3.1016-2.2617 0.79688 0.67969 2.0273 1.4531 3.5391 1.4961 1.6641 0.050781 3.2383-0.78125 4.6641-2.4648 1.043-1.2305 1.7695-3.207 0.32031-6.0898 0.64063 0.14453 1.2344 0.23047 1.7656 0.23047 2.0039 0 3.2422-0.9375 3.9922-1.9492 1.3047-1.7812 1.7539-3.5 1.3281-5.1094zm-25.703-14.363c0.96094-1.0938 1.9375-1.6484 2.9102-1.6484h0.0625c1.6797 0.039063 2.9648 1.6836 2.9922 1.7148l1.0156 1.3359 0.69531-1.5352c0.007813-0.019531 0.89062-1.9297 2.5234-2.3555 0.99219-0.25781 2.1328 0.082032 3.3945 1.0156 1.457 1.0781 1.5078 3.0898 0.14844 5.9727-0.69922 0.58203-1.3711 1.2266-2.0078 1.8984-0.0625 0.066407-0.12109 0.13281-0.18359 0.20312-0.26953 0.28906-0.52734 0.57812-0.78125 0.87109-0.085937 0.097656-0.16406 0.19531-0.25 0.29688-0.21875 0.25781-0.42578 0.51562-0.625 0.77344-0.09375 0.12109-0.1875 0.23828-0.27734 0.35547-0.17187 0.22656-0.33203 0.44531-0.49219 0.66797-0.097656 0.13672-0.19531 0.26953-0.28906 0.40234-0.13281 0.19531-0.25391 0.37891-0.375 0.5625-0.12109 0.1875-0.24219 0.37109-0.35156 0.54688l-0.054688-0.078125-0.03125 0.066406-0.74609-6.2734c-0.066407-0.54687-0.5625-0.94141-1.1094-0.875-0.54688 0.066407-0.94141 0.5625-0.875 1.1094l0.64844 5.4414c-0.15625-0.11328-0.30859-0.22266-0.46875-0.34375-0.074219-0.058594-0.15234-0.12109-0.22656-0.17969-0.20312-0.15625-0.41016-0.31641-0.61719-0.48438-0.078125-0.0625-0.15234-0.13281-0.23047-0.19531-0.20703-0.17188-0.41406-0.34766-0.62109-0.53125-0.0625-0.054688-0.12109-0.11328-0.17969-0.16797-0.22266-0.19922-0.44531-0.40234-0.66406-0.61328-0.023438-0.019531-0.042969-0.042969-0.0625-0.066407-0.53125-0.51562-1.043-1.0586-1.5078-1.6211l-0.98047-0.90625c-1.5312-1.3945-1.7539-3.7969-0.38281-5.3594zm-6.4531 18.375c0.039062-1.6875 1.6992-2.9844 1.7148-2.9922l1.3555-1.0234-1.5547-0.6875c-0.019531-0.007813-1.9219-0.89062-2.3477-2.5117-0.26562-0.99609 0.078125-2.1406 1.0117-3.4023 0.5625-0.75781 1.3711-1.1367 2.4258-1.1367 1.0352 0 2.3047 0.36719 3.8008 1.0977 0.26562 0.31641 0.54688 0.62109 0.83203 0.92188 0.066407 0.070312 0.13281 0.13281 0.19922 0.19922 0.25391 0.26172 0.51172 0.51562 0.77344 0.76562 0.11328 0.10547 0.22266 0.20703 0.33594 0.3125 0.23047 0.21094 0.45703 0.41406 0.69141 0.61328 0.10938 0.09375 0.21875 0.19141 0.33203 0.28516 0.27734 0.23047 0.55469 0.45312 0.82813 0.66797 0.054687 0.042969 0.10937 0.089843 0.16797 0.13281 0.32812 0.25 0.64453 0.48438 0.95703 0.70312 0.097656 0.066406 0.1875 0.12891 0.28125 0.19141 0.003906 0.003907 0.007812 0.003907 0.011718 0.007813l-6.5234 0.97656c-0.54688 0.082031-0.92188 0.58984-0.83984 1.1367s0.58984 0.92188 1.1367 0.83984l6.1484-0.91797c-0.14844 0.16797-0.30469 0.35156-0.45703 0.53516-0.046875 0.058593-0.09375 0.10937-0.14453 0.16797-0.25391 0.30859-0.51172 0.63281-0.76953 0.96875-0.0625 0.082032-0.125 0.16797-0.1875 0.25391-0.19531 0.25781-0.38672 0.52344-0.57813 0.79688-0.082031 0.11719-0.16406 0.23828-0.24609 0.35937-0.17578 0.26172-0.34766 0.52734-0.51953 0.79688-0.074219 0.11719-0.14844 0.23437-0.21875 0.35156-0.23438 0.38281-0.45703 0.77344-0.66797 1.168l-0.18359 0.15625-0.007813 0.007812c-0.19922 0.16016-0.39453 0.30859-0.58984 0.45312-0.027344 0.019532-0.050781 0.039063-0.078125 0.058594-0.19922 0.14453-0.39453 0.27344-0.58984 0.39844-0.019531 0.011718-0.039062 0.027343-0.058594 0.039062-0.42578 0.26562-0.83984 0.48438-1.2383 0.65234-1.4102 0.58984-2.5352 0.50391-3.4453-0.26562-1.1875-1.0156-1.7812-2.0508-1.7578-3.0781zm-10.938 13.77c-0.42578-0.23438-0.64453-0.71875-0.53125-1.1797 0.070312-0.28125 0.25781-0.52734 0.50781-0.66797 0.15234-0.085938 0.31641-0.12891 0.48047-0.12891 0.097657 0 0.19531 0.015626 0.28906 0.046876 2.9688 0.94531 9.0312 1.3125 16.375-6.7461 0.15234-0.070313 0.30469-0.14062 0.46094-0.22266-0.050781 0.20703-0.09375 0.40625-0.12891 0.60937-3.582 4.8281-10.492 12.105-17.453 8.2891zm34.156-6.1641c-1.0117 1.1953-2.0898 1.7773-3.0703 1.7617-1.6875-0.039062-2.9844-1.6992-2.9922-1.7148l-1.0156-1.3398-0.69531 1.5352c-0.007812 0.019531-0.89062 1.9297-2.5234 2.3555-0.99219 0.25781-2.1328-0.082031-3.3906-1.0156-0.92969-0.6875-1.2773-1.7227-1.0664-3.168 0.035156-0.24609 0.085937-0.5 0.15625-0.76562 0.19922-0.77734 0.53125-1.6289 0.99609-2.5391l0.14844-0.28125c0.17188-0.32422 0.35547-0.64453 0.54297-0.96094 0.066406-0.10938 0.14062-0.21875 0.20703-0.32812 0.125-0.20312 0.25-0.40625 0.38281-0.60547 0.097656-0.14844 0.19922-0.28906 0.30078-0.43359 0.10547-0.15234 0.21094-0.3125 0.32031-0.46094 0.11328-0.16016 0.23047-0.30859 0.34766-0.46094 0.097656-0.12891 0.19141-0.26172 0.28906-0.38281 0.11719-0.15234 0.23438-0.29297 0.35547-0.4375 0.09375-0.11719 0.19141-0.23828 0.28516-0.34766s0.18359-0.21094 0.27344-0.31641l0.66797 5.6055c0.066407 0.54688 0.5625 0.94141 1.1094 0.875 0.54688-0.066406 0.94141-0.5625 0.875-1.1094l-0.77344-6.4961 0.023437-0.054687c0.074219 0.074219 0.13672 0.14453 0.21484 0.22266 0.23438 0.23438 0.49219 0.47656 0.76953 0.72266 0.13281 0.12109 0.27734 0.24219 0.41406 0.36328 0.16797 0.14844 0.33594 0.29297 0.51562 0.44141 0.15625 0.12891 0.32031 0.26172 0.48438 0.39062 0.18359 0.14844 0.37109 0.29297 0.5625 0.4375 0.16797 0.12891 0.33203 0.25391 0.50781 0.37891 0.21875 0.16016 0.4375 0.3125 0.66406 0.46875 0.16016 0.10938 0.31641 0.21875 0.47656 0.32422 0.32031 0.21094 0.64453 0.41016 0.97266 0.60938 0.078124 0.046875 0.14844 0.09375 0.22656 0.14062 0.375 0.21875 0.75 0.42188 1.1328 0.61328 1.4414 1.8008 2.7773 4.2344 1.3047 5.9727zm5.9922-7.7031c-1.1133 1.5039-3.207 1.5156-6.2266 0.039062-0.38281-0.1875-0.76562-0.39453-1.1445-0.61328-0.11328-0.0625-0.21875-0.13672-0.33203-0.20312-0.26953-0.16016-0.53516-0.32422-0.79687-0.49609-0.125-0.082031-0.24609-0.16797-0.37109-0.25391-0.23828-0.16406-0.47656-0.32812-0.71094-0.49609-0.13281-0.097656-0.26562-0.19922-0.39453-0.29688-0.20312-0.15625-0.40625-0.30859-0.60156-0.46484-0.14844-0.11719-0.28906-0.23438-0.43359-0.35156-0.15625-0.12891-0.30859-0.25781-0.45703-0.38672-0.16406-0.14062-0.32031-0.28125-0.47266-0.41797-0.10156-0.09375-0.20312-0.18359-0.30078-0.27734-0.089844-0.085938-0.17188-0.16797-0.25781-0.25l5.4609-0.81641c0.54688-0.082031 0.92188-0.58984 0.83984-1.1367-0.082031-0.54687-0.58984-0.92187-1.1367-0.83984l-5.4102 0.80859c0.1875-0.29687 0.39844-0.60547 0.625-0.92578 1.168-1.6523 2.8047-3.5742 4.543-4.9805 2.5703-2.082 4.5859-2.5273 5.9961-1.332 1.1953 1.0117 1.7852 2.0469 1.7617 3.0703-0.039063 1.6875-1.6992 2.9844-1.7148 2.9922l-1.3398 1.0156 1.5352 0.69531c0.019531 0.007812 1.9297 0.89062 2.3555 2.5234 0.25781 0.99219-0.085937 2.1367-1.0156 3.3945z"/>
<text x="0.0" y="117.5" font-size="5.0" font-weight="bold" font-family="Arbeit Regular, Helvetica, Arial-Unicode, Arial, Sans-serif" fill="#000000">Created by Fath Yusuf Iskhaqy</text><text x="0.0" y="122.5" font-size="5.0" font-weight="bold" font-family="Arbeit Regular, Helvetica, Arial-Unicode, Arial, Sans-serif" fill="#000000">from Noun Project</text></svg>