<svg xmlns="http://www.w3.org/2000/svg" version="1.1" viewBox="-5.0 -10.0 110.0 135.0">
 <path d="m50 25c-0.46875 0-0.78125-0.15625-1.0938-0.46875s-0.46875-0.625-0.46875-1.0938 0.15625-0.78125 0.46875-1.0938c0.625-0.625 1.5625-0.625 2.1875 0 0.3125 0.3125 0.46875 0.625 0.46875 1.0938s-0.15625 0.78125-0.46875 1.0938-0.625 0.46875-1.0938 0.46875z"/>
 <path d="m87.5 57.812c-2.0312 0-3.75 1.25-4.375 3.125h-7.9688l-6.875-13.125c16.719-7.0312 28.594-23.75 28.594-43.125 0-0.9375-0.625-1.5625-1.5625-1.5625s-1.5625 0.625-1.5625 1.5625c0 18.125-11.25 33.906-27.031 40.469l-9.6875-18.281c0.46875-0.9375 0.78125-2.1875 0.78125-3.2812 0-2.5-1.25-4.8438-3.125-6.25v-9.5312c0-1.25-0.46875-2.5-1.4062-3.2812-0.78125-0.9375-2.0312-1.4062-3.2812-1.4062-2.6562 0-4.6875 2.0312-4.6875 4.6875v9.375c-1.875 1.4062-3.125 3.5938-3.125 6.25 0 1.25 0.3125 2.3438 0.78125 3.2812l-9.6875 18.281c-15.781-6.4062-27.031-22.188-27.031-40.312 0-0.9375-0.625-1.5625-1.5625-1.5625s-1.5625 0.625-1.5625 1.5625c0 19.375 11.875 36.094 28.75 43.125l-7.0312 13.125h-7.9688c-0.625-1.875-2.3438-3.125-4.375-3.125-2.6562 0-4.6875 2.0312-4.6875 4.6875s2.0312 4.6875 4.6875 4.6875c2.0312 0 3.75-1.25 4.375-3.125h6.4062l-7.3438 13.75c-0.15625 0.3125-0.15625 0.625-0.15625 1.0938l1.7188 9.2188-3.4375 6.4062c-0.15625 0.78125 0 1.7188 0.78125 2.1875 0.3125 0.15625 0.46875 0.15625 0.78125 0.15625 0.625 0 1.0938-0.3125 1.4062-0.78125l3.5938-6.875 13.281-25h9.8438v1.5625c0 0.9375 0.625 1.5625 1.5625 1.5625h9.375c0.9375 0 1.5625-0.625 1.5625-1.5625v-1.5625h9.8438l4.6875 8.75c-0.46875 0-1.0938 0.15625-1.5625 0.46875-1.0938 0.625-1.875 1.5625-2.3438 2.8125-0.3125 1.25-0.3125 2.5 0.3125 3.5938 0.78125 1.5625 2.3438 2.5 4.2188 2.5 0.78125 0 1.5625-0.15625 2.1875-0.46875 0.46875-0.3125 0.9375-0.625 1.25-0.9375l4.5312 8.5938 3.5938 6.875c0.3125 0.46875 0.78125 0.78125 1.4062 0.78125 0.3125 0 0.46875 0 0.78125-0.15625 0.78125-0.46875 1.0938-1.4062 0.625-2.1875l-3.4375-6.4062 1.7188-9.2188c0-0.3125 0-0.78125-0.15625-1.0938l-7.1875-14.062h6.4062c0.625 1.875 2.3438 3.125 4.375 3.125 2.6562 0 4.6875-2.0312 4.6875-4.6875s-2.0312-4.6875-4.6875-4.6875zm-75 6.25c-0.9375 0-1.5625-0.625-1.5625-1.5625s0.625-1.5625 1.5625-1.5625 1.5625 0.625 1.5625 1.5625-0.625 1.5625-1.5625 1.5625zm60.469 13.906c-0.15625 0.46875-0.46875 0.78125-0.78125 0.9375-0.78125 0.46875-1.7188 0.15625-2.1875-0.625-0.15625-0.3125-0.3125-0.78125-0.15625-1.25s0.46875-0.78125 0.78125-0.9375c0.15625-0.15625 0.46875-0.15625 0.78125-0.15625 0.625 0 1.0938 0.3125 1.4062 0.78125 0.15625 0.3125 0.15625 0.78125 0.15625 1.25zm-20.781-47.031c1.0938-0.3125 2.0312-0.78125 2.8125-1.4062l8.9062 16.719c-0.9375 0.3125-2.0312 0.625-3.125 0.9375zm5.3125 16.875c-2.3438 0.3125-5 0.625-7.5 0.625s-5.1562-0.3125-7.5-0.625l7.5-14.219zm-9.0625-40c0-0.9375 0.625-1.5625 1.5625-1.5625 0.46875 0 0.78125 0.15625 1.0938 0.46875s0.46875 0.625 0.46875 1.0938v7.9688c-0.46875-0.15625-1.0938-0.15625-1.5625-0.15625s-1.0938 0-1.5625 0.15625zm1.5625 10.938c2.6562 0 4.6875 2.0312 4.6875 4.6875s-2.0312 4.6875-4.6875 4.6875-4.6875-2.0312-4.6875-4.6875 2.0312-4.6875 4.6875-4.6875zm-5 10.625c0.78125 0.625 1.7188 1.0938 2.8125 1.4062l-8.5938 16.25c-1.0938-0.3125-2.0312-0.625-3.125-0.9375zm-17.812 33.906 0.15625-0.15625 7.3438-14.062c0.9375 0.3125 2.0312 0.625 2.9688 0.9375l-17.656 33.75-0.9375-4.8438zm25.938 0.78125h-6.25v-3.125h6.25zm3.125-3.125v-1.5625c0-0.9375-0.625-1.5625-1.5625-1.5625h-9.375c-0.9375 0-1.5625 0.625-1.5625 1.5625v1.5625h-8.2812l5.4688-10.312c2.9688 0.625 5.9375 0.9375 9.0625 0.9375s6.0938-0.3125 9.0625-0.9375l5.4688 10.312zm23.75 22.812-17.812-33.75c1.0938-0.3125 2.0312-0.625 2.9688-0.9375l7.3438 14.062c0 0.15625 0 0.15625 0.15625 0.15625l8.2812 15.625zm7.5-19.688c-0.9375 0-1.5625-0.625-1.5625-1.5625s0.625-1.5625 1.5625-1.5625 1.5625 0.625 1.5625 1.5625-0.625 1.5625-1.5625 1.5625z"/>
</svg>