<svg xmlns="http://www.w3.org/2000/svg" version="1.1" viewBox="-5.0 -10.0 110.0 135.0">
 <path d="m79.301 60.516v15.406c0 2.4805-1.0156 4.7383-2.6484 6.3711l-0.089844 0.085937c-1.6289 1.5859-3.8477 2.5664-6.2773 2.5664h-12.715c-0.82812 0-1.5-0.67187-1.5-1.5 0-0.82812 0.67188-1.5 1.5-1.5h12.715c0.71875 0 1.4062-0.12891 2.0508-0.35937l-24.367-16.301-5.7852 5.582c-0.57422 0.55469-1.4922 0.55859-2.0742 0l-5.7852-5.582-24.367 16.301c0.64062 0.23437 1.3281 0.35937 2.0508 0.35937h40.211c0.82812 0 1.5 0.67188 1.5 1.5 0 0.82813-0.67188 1.5-1.5 1.5h-40.211c-2.1914 0-4.2109-0.79687-5.7812-2.1133l-0.035156-0.035156-0.027344-0.023437c-0.17969-0.15234-0.35547-0.31641-0.52344-0.48438-1.6367-1.6289-2.6523-3.8867-2.6523-6.3672v-13.242c0-0.82813 0.67188-1.5 1.5-1.5s1.5 0.67187 1.5 1.5v13.242c0 1.4414 0.51172 2.7656 1.3672 3.8086l24.77-16.57-25.25-24.375c-0.5625 0.91406-0.88672 1.9883-0.88672 3.1367v4.7148c0 0.82812-0.67188 1.5-1.5 1.5s-1.5-0.67188-1.5-1.5v-4.7148c0-2.4805 1.0156-4.7383 2.6484-6.3711 1.6328-1.6328 3.8906-2.6484 6.3711-2.6484h39.512c0.98828-4.2734 3.1602-8.0938 6.1602-11.094 4.1719-4.1758 9.9336-6.7578 16.293-6.7578 2.0234 0 3.9961 0.26562 5.8828 0.76172 1.9375 0.51172 3.7812 1.2695 5.4844 2.2383 0.71875 0.40625 0.96875 1.3203 0.5625 2.0391s-1.3203 0.96875-2.0391 0.5625c-1.4805-0.83984-3.082-1.5-4.7656-1.9453-1.6211-0.42969-3.3438-0.65625-5.125-0.65625-5.5312 0-10.547 2.2422-14.172 5.8711-2.8516 2.8516-4.8516 6.5586-5.5703 10.707l-0.007813 0.039063-0.007812 0.035156c-0.1875 1.1016-0.28516 2.2344-0.28516 3.3906 0 5.5039 2.2148 10.484 5.793 14.102l0.074219 0.070313c3.6289 3.6289 8.6367 5.8711 14.172 5.8711s10.547-2.2422 14.172-5.8711c3.6289-3.6211 5.8711-8.6328 5.8711-14.172 0-2.7969-0.57031-5.4531-1.5977-7.8594-1.0664-2.5078-2.6367-4.7539-4.5781-6.6133-0.59375-0.57422-0.61328-1.5195-0.039063-2.1133s1.5195-0.61328 2.1133-0.039062c2.2266 2.1367 4.0273 4.7148 5.2578 7.5977 1.1836 2.7773 1.8438 5.8359 1.8438 9.0312 0 6.3555-2.5781 12.117-6.7539 16.289-2.9648 2.9688-6.7383 5.1328-10.961 6.1328zm-28.266-24.617h-39.027c-1.082 0-2.1016 0.28906-2.9844 0.79687l32.121 31.012 15.254-14.723c-3.4062-4.0156-5.4648-9.2188-5.4648-14.891 0-0.73828 0.035156-1.4727 0.10547-2.1914zm7.4336 19.238-8.3086 8.0195 24.77 16.57c0.85547-1.0391 1.3672-2.3672 1.3672-3.8086v-14.902c-0.76562 0.078125-1.543 0.11719-2.3281 0.11719-5.9688 0-11.414-2.2695-15.504-5.9922zm14.035-4.7344c0.82031 0.097656 1.4102 0.84375 1.3125 1.6641-0.097656 0.82031-0.84375 1.4102-1.6641 1.3125-3.8672-0.46094-7.2617-2.3359-9.6914-5.0742-2.4258-2.7344-3.8867-6.3242-3.8867-10.219 0-0.91016 0.085937-1.8281 0.25-2.7344 0.16406-0.91016 0.41016-1.8008 0.72656-2.6484 0.28906-0.76953 1.1484-1.168 1.9219-0.87891 0.76953 0.28906 1.168 1.1484 0.87891 1.9219-0.25391 0.68359-0.45312 1.3984-0.58594 2.1328-0.12109 0.69141-0.1875 1.4336-0.1875 2.2109 0 3.1445 1.1719 6.0391 3.1211 8.2383 1.9492 2.1953 4.6836 3.7031 7.8047 4.0742zm-7.668-20.695c-0.55859 0.60547-1.5078 0.64453-2.1133 0.085938-0.60547-0.55859-0.64453-1.5078-0.085937-2.1133 1.4297-1.5586 3.1875-2.8242 5.1484-3.6914l0.085938-0.03125c1.8789-0.8125 3.9492-1.2656 6.1094-1.2656 4.2461 0 8.0938 1.7266 10.883 4.5117l0.007813 0.007813c2.7852 2.7891 4.5078 6.6367 4.5078 10.879 0 1.5898-0.25391 3.1602-0.73047 4.6523-0.47266 1.5117-1.1836 2.9375-2.0938 4.2227-0.60156 0.85547-1.4414 1.4688-2.375 1.7773-0.92969 0.3125-1.9609 0.32812-2.9609 0.011718-0.99609-0.30859-1.8281-0.92188-2.4102-1.7227-0.58984-0.79688-0.91797-1.7734-0.91797-2.8242v-0.42969c-1.1133 0.76562-2.4609 1.2109-3.9102 1.2109-1.9062 0-3.6406-0.77344-4.8867-2.0234-1.25-1.25-2.0234-2.9805-2.0234-4.8867s0.77344-3.6406 2.0234-4.8867c1.25-1.25 2.9805-2.0234 4.8867-2.0234 1.4648 0 2.8242 0.45703 3.9414 1.2344 0.125-0.69922 0.73828-1.2266 1.4688-1.2266 0.82422 0 1.4922 0.66797 1.4922 1.4922v5.1133l0.007813 0.30078-0.007813 0.30078v5.8281c0.007813 0.40234 0.125 0.76953 0.33594 1.0547 0.20703 0.28906 0.51953 0.51562 0.90234 0.63672 0.37891 0.125 0.76562 0.12109 1.1094 0.007812 0.33984-0.11328 0.64844-0.34375 0.87891-0.66406 0.73047-1.0312 1.3008-2.1797 1.6875-3.4062 0.38281-1.1797 0.57812-2.4414 0.57812-3.75 0-3.4297-1.3867-6.5273-3.6289-8.7656-2.2422-2.2422-5.3477-3.6328-8.7734-3.6328-1.7539 0-3.4141 0.35938-4.9141 1.0039l-0.070313 0.03125c-1.5859 0.69531-3 1.7188-4.1562 2.9766zm11.902 5.6172c-0.70312-0.70312-1.6875-1.1445-2.7656-1.1445s-2.0625 0.4375-2.7656 1.1445c-0.70312 0.70312-1.1445 1.6875-1.1445 2.7656s0.4375 2.0625 1.1445 2.7656c0.70312 0.70312 1.6875 1.1445 2.7656 1.1445s2.0625-0.4375 2.7656-1.1445c0.70312-0.70312 1.1445-1.6875 1.1445-2.7656s-0.4375-2.0625-1.1445-2.7656zm-70.754 22.004c0 0.82812-0.67188 1.5-1.5 1.5s-1.5-0.67188-1.5-1.5v-5.3477c0-0.82812 0.67188-1.5 1.5-1.5s1.5 0.67188 1.5 1.5z"/>
</svg>