<svg xmlns="http://www.w3.org/2000/svg" version="1.1" viewBox="-5.0 -10.0 110.0 135.0">
 <path d="m90.477 4.7617h-11.906v-2.3789c0-0.63281-0.25-1.2383-0.69531-1.6836-0.44922-0.44922-1.0547-0.69922-1.6836-0.69922h-66.668c-1.3164 0-2.3789 1.0664-2.3789 2.3828v95.234c0 0.63281 0.25 1.2383 0.69531 1.6836 0.44531 0.44922 1.0508 0.69922 1.6836 0.69922h66.668c0.62891 0 1.2344-0.25 1.6836-0.69922 0.44531-0.44531 0.69531-1.0508 0.69531-1.6836v-2.3789h11.906c0.63281 0 1.2383-0.25 1.6836-0.69922 0.44531-0.44531 0.69531-1.0508 0.69531-1.6836v-85.711c0-0.63281-0.25-1.2383-0.69531-1.6836-0.44531-0.44922-1.0508-0.69922-1.6836-0.69922zm-11.906 47.621h9.5234v9.5234h-9.5234zm0-4.7617v-9.5273h9.5234v9.5234zm0-14.285v-9.5273h9.5234v9.5234zm0 33.332h9.5234v9.5234h-9.5234zm9.5234-57.145v9.5234h-9.5234v-9.5234zm-57.141-4.7617v10.93l-3.0703-3.0977c-0.44922-0.44922-1.0586-0.70312-1.6914-0.70312-0.63672 0-1.2461 0.25391-1.6914 0.70312l-3.0703 3.0977v-10.93zm42.855 90.477h-61.902v-90.477h4.7617v16.668c0.003906 0.96094 0.58594 1.8242 1.4766 2.1875 0.88672 0.375 1.9102 0.17578 2.5938-0.5l5.4531-5.4727 5.4531 5.4766v-0.003906c0.44922 0.44922 1.0547 0.69531 1.6875 0.69141 0.3125 0.007812 0.625-0.054688 0.90625-0.19141 0.89062-0.36328 1.4727-1.2266 1.4766-2.1875v-16.668h38.094zm4.7617-4.7617v-9.5234h9.5234v9.5234zm-35.715-61.906c-5.6797 0-11.133 2.2578-15.152 6.2773-4.0156 4.0195-6.2734 9.4688-6.2734 15.152s2.2578 11.133 6.2734 15.152c4.0195 4.0195 9.4727 6.2773 15.152 6.2773 5.6836 0 11.137-2.2578 15.152-6.2773 4.0195-4.0195 6.2773-9.4688 6.2773-15.152s-2.2578-11.133-6.2773-15.152c-4.0156-4.0195-9.4688-6.2773-15.152-6.2773zm-7.1406 36.453v-0.73828c0-3.9453 3.1992-7.1406 7.1406-7.1406 3.9453 0 7.1445 3.1953 7.1445 7.1406v0.73828c-4.5117 2.1914-9.7773 2.1914-14.285 0zm4.7617-15.023c0-0.96484 0.57813-1.832 1.4688-2.1992 0.89063-0.36719 1.9141-0.16406 2.5938 0.51562 0.68359 0.67969 0.88672 1.7031 0.51953 2.5938-0.37109 0.89062-1.2383 1.4727-2.2031 1.4727-1.3125 0-2.3789-1.0664-2.3789-2.3828zm14.047 11.906c-0.66406-3.3516-2.7734-6.2344-5.7617-7.8828 0.80859-1.1875 1.2383-2.5898 1.2383-4.0234 0-3.9453-3.1992-7.1445-7.1445-7.1445-3.9414 0-7.1406 3.1992-7.1406 7.1445 0.003906 1.4258 0.43359 2.8203 1.2383 4-2.9648 1.6875-5.0625 4.5664-5.7617 7.9062-3.1719-3.1094-4.9727-7.3516-5-11.793-0.03125-4.4375 1.7109-8.707 4.8398-11.855 3.1289-3.1523 7.3867-4.9219 11.824-4.9219 4.4414 0 8.6992 1.7695 11.824 4.9219 3.1289 3.1484 4.875 7.418 4.8438 11.855-0.03125 4.4414-1.8281 8.6836-5 11.793zm-23.57 19.047c-1.3164 0-2.3828-1.0664-2.3828-2.3828 0-1.3125 1.0664-2.3789 2.3828-2.3789h23.809c1.3164 0 2.3828 1.0664 2.3828 2.3789 0 1.3164-1.0664 2.3828-2.3828 2.3828zm33.332 7.1445v-0.003906c0 0.63281-0.25 1.2383-0.69531 1.6836-0.44922 0.44922-1.0547 0.69922-1.6836 0.69922h-38.098c-1.3125 0-2.3789-1.0664-2.3789-2.3828 0-1.3125 1.0664-2.3789 2.3789-2.3789h38.098c0.62891 0 1.2344 0.25 1.6836 0.69531 0.44531 0.44922 0.69531 1.0547 0.69531 1.6836z"/>
</svg>