<svg xmlns="http://www.w3.org/2000/svg" xmlns:xlink="http://www.w3.org/1999/xlink" version="1.1" x="0px" y="0px" viewBox="0 0 3500 4375" style="enable-background:new 0 0 3500 3500;" xml:space="preserve"><path d="M1820.6,1188.7c-342.4,0-621,278.6-621,621s278.6,621,621,621s621-278.6,621-621S2163,1188.7,1820.6,1188.7z M1820.6,2322.7  c-282.9,0-513-230.1-513-513s230.1-513,513-513s513,230.1,513,513S2103.4,2322.7,1820.6,2322.7z"/><path d="M1708.6,1704.3c25.3,0,45.8-20.5,45.8-45.8s-20.5-45.8-45.8-45.8s-45.8,20.5-45.8,45.8  C1662.8,1683.8,1683.3,1704.3,1708.6,1704.3z"/><path d="M1932.5,1704.3c25.3,0,45.8-20.5,45.8-45.8s-20.5-45.8-45.8-45.8s-45.8,20.5-45.8,45.8S1907.2,1704.3,1932.5,1704.3z"/><path d="M2157.1,1678.3c-25.8-15-58.9-6.2-73.8,19.7c-54.3,93.7-154.9,151.9-262.7,151.9s-208.4-58.2-262.7-151.9  c-15-25.8-48-34.6-73.8-19.7s-34.6,48-19.7,73.8c73.5,126.9,210,205.7,356.1,205.7s282.6-78.8,356.1-205.7  C2191.7,1726.3,2182.9,1693.2,2157.1,1678.3z"/><path d="M3170.6,783.7h-594c-3,0-5.8,0.7-8.8,0.9c-168.3-122.8-363.7-201.9-569.4-230.8V270.7c0-29.8-24.2-54-54-54h-486  c-29.8,0-54,24.2-54,54v374.6c-31.8-18.5-68.7-29.2-108-29.2c-98.8,0-182.1,66.7-207.7,157.4c-151.1,107-278.2,247-370,407.5  c-39,7.9-77.1,21.6-113,41.3c-130-71.3-289-65.4-414,18c-15,10-24,26.9-24,44.9v417c-0.4,11,2.5,22.2,9,32c10.4,15.6,27.5,24,45,24  c10.3,0,20.7-3,29.9-9.1c91.5-60.9,207.5-64.5,302.5-12.3c-1.4,24.3-2.3,48.6-2.3,72.8c0,129.2,19.4,255,57,375.8H421.2  c-29.8,0-54,24.2-54,54v380.2c0,29.8,24.2,54,54,54h190.1c29.8,0,54-24.2,54-54v-41h146.2c190.6,250,462.3,418.5,769.8,477.2  c18,19.2,36,38.4,54.1,57.6c25.7,27.1,51.4,54.2,77.1,81.2c16.4,17.2,32.8,34.4,49.2,51.6c14.4,15.1,27,32.3,48.8,36.3  c3.3,0.6,6.6,0.9,9.7,0.8c24.8-0.4,42.7-20.2,59.4-37.7c19.5-20.4,39-40.9,58.4-61.3c40.8-42.8,81.5-85.7,121.9-128.7  c240.5-45.9,459.3-159.3,636.7-329c44.1,18,92.1,28.2,142.6,28.2c208.4,0,378-169.6,378-378c0-125.1-61.4-236-155.4-304.8  c18-85.9,27.7-173.8,27.7-262.2c0-91.2-10.1-181.7-29.2-270h110.2c89.3,0,162-72.7,162-162v-432  C3332.6,856.4,3259.9,783.7,3170.6,783.7L3170.6,783.7z M1512.4,324.7h378v53.2h-378V324.7z M1296.4,724c59.5,0,108,48.5,108,108  s-48.5,108-108,108s-108-48.5-108-108S1236.8,724,1296.4,724z M659.6,1616.5v-300.9c86.3-46.4,189.8-46.4,276,0v300.8  C846.5,1583.6,748.7,1583.6,659.6,1616.5L659.6,1616.5z M413.5,1591.9c-46.8,0-93.5,8.2-138,24.7v-300.9c86.3-46.4,189.8-46.4,276,0  v300.9C507,1600.1,460.3,1591.9,413.5,1591.9z M557.3,2565.6h-82.1v-272.2h82.1V2565.6z M665.3,2388.5h272.2v82.1H665.3V2388.5z   M1045.5,2293.5h82.1v272.2h-82.1C1045.5,2565.6,1045.5,2293.5,1045.5,2293.5z M1820.4,3151.1c-60.1-63.1-130.9-137.6-173.6-183  c-0.4-0.4-0.7-0.8-1-1.1c-20.1-21.3-33.7-35.9-36.7-39.5c-10.2-14.6-15.6-31.7-15.6-49.4c0-47.7,38.8-86.5,86.5-86.5  s86.5,38.8,86.5,86.5c0,29.8,24.2,54,54,54s54-24.2,54-54c0-47.7,38.8-86.5,86.5-86.5s86.5,38.8,86.5,86.5  c0,17.7-5.4,34.8-13.9,47.1C2022.7,2938.3,1909.5,3057.6,1820.4,3151.1z M3109.3,2376.6c0,148.9-121.1,270-270,270  s-270-121.1-270-270s121.1-270,270-270S3109.3,2227.7,3109.3,2376.6z M2981.6,1809.6c0,70.7-6.5,141-19,210.1  c-38.7-13.4-80.1-21.1-123.3-21.1c-208.4,0-378,169.6-378,378c0,117.8,54.2,223.1,138.9,292.5c-130.2,118.4-283.3,204.3-450.5,253.4  c3.4-14.5,5.7-29.2,5.7-44.4c0-107.2-87.2-194.5-194.5-194.5c-55.2,0-105,23.1-140.5,60.1c-35.4-37-85.3-60.1-140.5-60.1  c-107.2,0-194.5,87.3-194.5,194.5c0,15.3,2.3,30.2,5.8,44.9c-166.1-48.9-318-134-446.1-249.4h136.5c29.8,0,54-24.2,54-54v-380.2  c0-29.8-24.2-54-54-54h-190c-29.8,0-54,24.2-54,54v41h-178c-66.1-148.4-99.9-306.6-99.9-470.9c0-25.1,1.1-50.4,2.7-75.6  c93.6-49.2,206.6-44.8,296.2,14.3c6.6,4.7,14.3,7.9,22.7,9.2c2.8,0.5,5.6,0.7,8.4,0.7c2.1,0,4.2-0.1,6.3-0.4c4-0.5,8-1.4,11.7-2.7  c10.7-3.7,20.2-10.8,27-21c6.6-9.8,9.5-21,9-32v-417c0-18-9-34.9-24-44.9c-52.7-35.1-111.5-56.4-171.6-64  c66.9-102.4,150-194.2,245.4-271.1c30.1,83.2,109.6,142.9,203,142.9c119.1,0,216-96.9,216-216V485.8h378v159.4  c-31.8-18.5-68.7-29.2-108-29.2c-119.1,0-216,96.9-216,216s96.9,216,216,216s216-96.9,216-216V662.6  c163.4,25.2,319.6,84.7,458,175.4c-25.7,28.7-41.8,66.1-41.8,107.6v432c0,89.3,72.7,162,162,162h372.8  C2970.5,1627.6,2981.7,1718.2,2981.6,1809.6L2981.6,1809.6z M1890.4,832c0,59.5-48.5,108-108,108s-108-48.5-108-108  s48.5-108,108-108S1890.4,772.4,1890.4,832z M3224.6,1377.6c0,29.8-24.2,54-54,54h-594c-29.8,0-54-24.2-54-54v-432  c0-29.8,24.2-54,54-54h594c29.8,0,54,24.2,54,54V1377.6z"/><path d="M2767.6,959.6c-18.5-13.6-44.6-0.3-44.6,22.6v359c0,23,26.1,36.2,44.6,22.6l245.1-179.5c15.3-11.2,15.3-34.1,0-45.3  L2767.6,959.6L2767.6,959.6z"/><path d="M2893.2,2322.7v-108c0-29.8-24.2-54-54-54s-54,24.2-54,54v162c0,29.8,24.2,54,54,54h162c29.8,0,54-24.2,54-54  s-24.2-54-54-54H2893.2z"/>
</svg>