<svg xmlns="http://www.w3.org/2000/svg" version="1.1" viewBox="-5.0 -10.0 110.0 135.0">
 <g>
  <path d="m62.027 15.188c-0.4375-1.2734-1.6406-2.125-2.9844-2.1133h-4.0312l-2.1016-4.9023v-0.003906c-0.5-1.1641-1.6445-1.918-2.9102-1.918s-2.4102 0.75391-2.9102 1.918l-2.1016 4.9062h-4.0312c-1.3438 0-2.5391 0.84766-2.9844 2.1172-0.44531 1.2656-0.039062 2.6758 1.0078 3.5156l3.5664 2.8555-1.6797 5.6094c-0.39453 1.3086 0.097656 2.7227 1.2188 3.5039 1.1211 0.78125 2.6172 0.75781 3.7109-0.0625l4.2031-3.1523 4.207 3.1523c1.0898 0.82031 2.5859 0.84375 3.707 0.0625 1.1211-0.78125 1.6133-2.1953 1.2227-3.5039l-1.6836-5.6094 3.5703-2.8555h-0.003907c1.0586-0.83203 1.4648-2.25 1.0078-3.5195zm-7.7109 3.5469c-1.0078 0.80469-1.4219 2.1406-1.0508 3.3789l1.0039 3.3398-2.3711-1.7773c-1.1289-0.83984-2.6719-0.83984-3.7969 0l-2.3672 1.7773 1-3.3359v-0.003907c0.375-1.2344-0.042969-2.5781-1.0547-3.3828l-1.8633-1.4922h1.8359-0.003906c1.2695 0 2.4102-0.75391 2.9102-1.918l1.4414-3.3633 1.4375 3.3555v0.003906c0.49609 1.168 1.6445 1.9258 2.9141 1.9219h1.8359z"/>
  <path d="m9.1016 34.625c-0.37891 1.2734 0.097657 2.6523 1.1914 3.4141 1.0938 0.76172 2.5508 0.73828 3.6172-0.0625l3.7969-2.8516 3.8008 2.8516h0.003907c1.0625 0.80078 2.5234 0.82422 3.6133 0.0625 1.0938-0.76172 1.5703-2.1406 1.1875-3.4141l-1.5273-5.0938 3.2227-2.5781v-0.003906c1.0234-0.81641 1.418-2.1914 0.98438-3.4258-0.43359-1.2383-1.6016-2.0664-2.9102-2.0664h-3.6328l-1.9062-4.4453c-0.48438-1.1367-1.5977-1.8711-2.832-1.8711-1.2344 0-2.3516 0.73438-2.8359 1.8711l-1.9062 4.4492-3.6328-0.003907c-1.3086 0-2.4766 0.82812-2.9102 2.0664-0.43359 1.2344-0.039062 2.6094 0.98438 3.4297l3.2227 2.5781zm9.5977-15.973-0.003907 0.003906zm-5.0195 6.9727c1.2344 0 2.3516-0.73438 2.8359-1.8672l1.1914-2.7852 1.1914 2.7812h0.003906c0.48438 1.1367 1.6016 1.8711 2.8359 1.8711h1.2578l-1.3828 1.1055c-0.98828 0.78516-1.3945 2.0898-1.0273 3.2969l0.79297 2.6445-1.8203-1.3672c-1.1016-0.8125-2.6016-0.8125-3.7031 0.003906l-1.8164 1.3633 0.79297-2.6445c0.36719-1.207-0.042969-2.5117-1.0273-3.2969l-1.3828-1.1055z"/>
  <path d="m90.664 21.457h-3.6289l-1.9062-4.4453c-0.48438-1.1328-1.6016-1.8711-2.8359-1.8711s-2.3477 0.73438-2.8359 1.8711l-1.9102 4.4492-3.6289-0.003907c-1.3086 0-2.4766 0.82812-2.9102 2.0664-0.43359 1.2344-0.039062 2.6094 0.98438 3.4297l3.2188 2.5742-1.5273 5.0977h0.003906c-0.38281 1.2773 0.097656 2.6523 1.1875 3.4141 1.0938 0.76172 2.5508 0.73828 3.6172-0.0625l3.8008-2.8477 3.8008 2.8516v-0.003907c1.0625 0.80078 2.5234 0.82422 3.6133 0.0625 1.0938-0.76172 1.5703-2.1406 1.1914-3.4141l-1.5273-5.0977 3.2188-2.5742c1.0234-0.81641 1.418-2.1914 0.98438-3.4297-0.43359-1.2383-1.6016-2.0664-2.9102-2.0664zm-4.4727 5.2773c-0.98438 0.78516-1.3867 2.0898-1.0234 3.293l0.79297 2.6445-1.8203-1.3672c-1.0977-0.81641-2.6016-0.8125-3.6992 0.003906l-1.8203 1.3633 0.79297-2.6406c0.36719-1.207-0.039062-2.5117-1.0234-3.3008l-1.3828-1.1055h1.2578-0.003906c1.2344 0.003906 2.3516-0.73438 2.8359-1.8672l1.1953-2.7852 1.1914 2.7773c0.48438 1.1406 1.5977 1.8789 2.8359 1.875h1.2578z"/>
  <path d="m50 35.418c-8.1758-0.011719-15.98 3.4141-21.508 9.4414-5.5234 6.0273-8.2656 14.098-7.5469 22.242 0.71875 8.1445 4.8242 15.613 11.32 20.582 0.074219 0.070312 0.16016 0.12891 0.24609 0.1875 5.0312 3.8125 11.176 5.8789 17.488 5.8789 6.3164 0 12.461-2.0664 17.492-5.8828 0.085937-0.054688 0.16797-0.11719 0.24219-0.18359 6.4961-4.9648 10.602-12.434 11.32-20.582 0.71875-8.1445-2.0234-16.215-7.5469-22.242-5.5273-6.0273-13.332-9.4531-21.508-9.4414zm-14.18 49.73c0.82422-3.418 2.8555-6.4219 5.7227-8.457 1.875 2.8477 5.0547 4.5625 8.4648 4.5586 3.4102-0.003906 6.5898-1.7188 8.4609-4.5703 0.65625 0.46484 1.2773 0.98047 1.8516 1.543 1.8906 1.9219 3.2109 4.3281 3.8203 6.957-4.1641 2.8711-9.1055 4.4102-14.164 4.4023-5.0586-0.003906-9.9961-1.5508-14.156-4.4336zm4.9961-23.691h6.1211c1.2383 0.003907 2.4141-0.54297 3.2031-1.5l2.1875-2.6211 0.43359 1.3125c0.58594 1.6797 2.168 2.8047 3.9453 2.8086h2.4766c-0.65234 4.6289-4.5117 8.1328-9.1836 8.3359-4.6719-0.20312-8.5312-3.707-9.1836-8.3359zm0-4.168v0.003907c0.65234-4.6289 4.5117-8.1328 9.1836-8.3359 4.6719 0.20312 8.5352 3.707 9.1875 8.3398l-2.4805 0.003906-1.6016-4.832h-0.003907c-0.23828-0.71875-0.84375-1.25-1.5898-1.3906-0.74219-0.14062-1.5039 0.13281-1.9883 0.71484l-4.5859 5.5zm13.879 17.453v0.003906c-1.1094 1.4688-2.8438 2.3359-4.6875 2.3359-1.8438 0.003907-3.5781-0.85938-4.6914-2.3281 1.5078-0.52344 3.0898-0.79297 4.6836-0.79688 1.5977 0.003907 3.1836 0.26953 4.6953 0.78906zm12.957 7.5234v0.003906c-1.6914-4.8555-5.3242-8.7852-10.031-10.848 3.7695-2.8516 5.9688-7.3203 5.9219-12.047 0.26562-7.7578-5.7852-14.277-13.543-14.582-7.7578 0.30469-13.809 6.8242-13.543 14.582-0.046875 4.7383 2.1602 9.2148 5.9453 12.062-4.6836 2.0938-8.3125 6.0039-10.059 10.824-4.6992-4.6836-7.3398-11.043-7.3438-17.68-0.003906-6.6328 2.6289-12.996 7.3164-17.691 4.6914-4.6914 11.055-7.3281 17.688-7.3242 6.6367 0 12.996 2.6367 17.684 7.332 4.6914 4.6953 7.3203 11.059 7.3125 17.695-0.007812 6.6328-2.6523 12.992-7.3477 17.676z"/>
 </g>
</svg>