<svg xmlns="http://www.w3.org/2000/svg" xmlns:xlink="http://www.w3.org/1999/xlink" version="1.1" x="0px" y="0px" viewBox="0 0 90 112.5" enable-background="new 0 0 90 90" xml:space="preserve"><path d="M15.373,14.938h59.219c2.156,0,3.865,1.708,3.865,3.87v4.667H11.504v-4.667C11.504,16.647,13.211,14.938,15.373,14.938z   M15.373,13.048c-3.172,0-5.756,2.588-5.76,5.761V66.98c0.004,3.177,2.588,5.76,5.76,5.76h4c0.537,0.021,0.979-0.412,0.979-0.942  c0-0.536-0.441-0.97-0.979-0.948h-4c-2.162,0-3.869-1.708-3.869-3.869V25.36h66.953V66.98c0,2.162-1.709,3.869-3.865,3.869h-4  c-0.537-0.021-0.979,0.412-0.979,0.948c0,0.53,0.441,0.964,0.979,0.942h4c3.172,0,5.756-2.583,5.756-5.76V18.809  c0-3.173-2.584-5.761-5.756-5.761H15.373z"/><path d="M17.457,17.016c-0.527,0.005-0.938,0.438-0.934,0.959v2.458c-0.004,0.525,0.418,0.957,0.943,0.957  c0.531,0,0.953-0.432,0.947-0.957v-2.458C18.426,17.438,17.988,17.006,17.457,17.016z"/><path d="M22.32,17.016c-0.525,0.005-0.938,0.438-0.932,0.959v2.458c-0.006,0.525,0.416,0.957,0.947,0.957  c0.527,0,0.949-0.432,0.943-0.957v-2.458C23.289,17.438,22.852,17.006,22.32,17.016z"/><path d="M52.113,57.605h4.697l7.01,17.406h-4.697L52.113,57.605z M39.895,57.605H50.07l3.605,8.943H36.295L39.895,57.605z   M33.154,57.605h4.693l-7.012,17.406h-4.691L33.154,57.605z M62.18,48.205h2.1v7.514H59.16L62.18,48.205z M54.805,48.205h5.344  l-3.031,7.514h-5.332L54.805,48.205z M47.441,48.205h5.332l-3.031,7.514H44.41L47.441,48.205z M40.066,48.205h5.332l-3.031,7.514  h-5.328L40.066,48.205z M32.691,48.205h5.332l-3.031,7.514h-5.328L32.691,48.205z M25.686,48.205h4.963l-3.02,7.514h-1.943V48.205z   M24.738,46.314c-0.521,0-0.943,0.421-0.943,0.942v9.405c0,0.521,0.422,0.944,0.943,0.944h6.379l-7.25,18  c-0.25,0.619,0.203,1.296,0.871,1.296h6.744c0.385,0.005,0.734-0.229,0.875-0.588l3.172-7.875h18.906l3.178,7.875  c0.141,0.353,0.484,0.588,0.869,0.588h6.74c0.666,0,1.119-0.678,0.869-1.296l-7.244-18h6.375c0.52,0,0.947-0.422,0.947-0.944v-9.405  c-0.006-0.521-0.428-0.942-0.947-0.942H24.738z"/><path fill-rule="evenodd" clip-rule="evenodd" d="M35.348,36.448c1.598,0,2.879,1.282,2.879,2.88c0,1.6-1.281,2.876-2.879,2.876  c-1.6,0-2.881-1.276-2.881-2.876C32.467,37.73,33.748,36.448,35.348,36.448z M35.348,34.563c-2.621,0-4.766,2.146-4.766,4.765  c0,2.625,2.145,4.762,4.766,4.762c2.625,0,4.77-2.136,4.77-4.762C40.117,36.709,37.973,34.563,35.348,34.563z"/><path fill-rule="evenodd" clip-rule="evenodd" d="M54.613,36.448c1.604,0,2.879,1.282,2.879,2.88c0,1.6-1.275,2.876-2.879,2.876  c-1.6,0-2.875-1.276-2.875-2.876C51.738,37.73,53.014,36.448,54.613,36.448z M54.613,34.563c-2.621,0-4.766,2.146-4.766,4.765  c0,2.625,2.145,4.762,4.766,4.762c2.625,0,4.77-2.136,4.77-4.762C59.383,36.709,57.238,34.563,54.613,34.563z"/></svg>
